<svg xmlns="http://www.w3.org/2000/svg" version="1.1" xmlns:xlink="http://www.w3.org/1999/xlink" xmlns:svgjs="http://svgjs.com/svgjs" width="2440" height="300" preserveAspectRatio="none" viewBox="0 0 2440 300"><g mask="url(&quot;#SvgjsMask1093&quot;)" fill="none"><rect width="2440" height="300" x="0" y="0" fill="rgba(227, 250, 218, 0.39)"></rect><path d="M2521.333333333333 300L0 300 L0 167.56Q92.7 56.92, 203.33333333333331 149.62Q245.65 69.94, 325.3333333333333 112.25Q437.11 20.69, 528.6666666666666 132.47Q568.89 50.69, 650.6666666666666 90.91Q737.57 55.81, 772.6666666666666 142.71Q847.71 95.75, 894.6666666666666 170.8Q933.64 87.78, 1016.6666666666666 126.75Q1092.34 80.42, 1138.6666666666665 156.09Q1156.7 52.13, 1260.6666666666665 70.16Q1335.56 23.05, 1382.6666666666665 97.94Q1496.18 8.12, 1585.9999999999998 121.63Q1695.46 27.75, 1789.333333333333 137.21Q1862.08 6.63, 1992.6666666666663 79.38Q2107.88 -8.74, 2195.9999999999995 106.47Q2237.07 25.54, 2317.9999999999995 66.61Q2455.81 1.08, 2521.333333333333 138.89z" fill="rgba(51, 243, 33, 0.2)"></path><path d="M2562 300L0 300 L0 144.29Q74.26 96.55, 122 170.81Q258.15 103.63, 325.3333333333333 239.78Q377.11 169.56, 447.3333333333333 221.34Q487.6 139.61, 569.3333333333333 179.88Q638.42 126.97, 691.3333333333333 196.05Q767.62 69.01, 894.6666666666665 145.3Q968.8 97.43, 1016.6666666666665 171.56Q1135.02 86.58, 1219.9999999999998 204.93Q1297.7 79.29, 1423.333333333333 156.99Q1526.83 138.49, 1545.333333333333 241.98Q1596.1 170.75, 1667.333333333333 221.51Q1691.79 123.96, 1789.333333333333 148.42Q1862.83 99.91, 1911.333333333333 173.41Q1990.19 130.26, 2033.333333333333 209.12Q2109.34 81.79, 2236.6666666666665 157.8Q2372.07 89.87, 2440 225.27Q2495.18 158.45, 2562 213.63z" fill="rgba(99, 219, 60, 0.29)"></path><path d="M2643.3333333333335 300L0 300 L0 288.51Q30.91 197.42, 122 228.33Q196.22 180.55, 244 254.76Q361.87 169.29, 447.3333333333333 287.16Q568.19 204.69, 650.6666666666666 325.55Q667.96 220.85, 772.6666666666666 238.14Q882.34 144.48, 976 254.15Q1061.73 217.88, 1098 303.61Q1168.67 252.28, 1220 322.96Q1260.58 241.54, 1342 282.12Q1429.86 166.65, 1545.3333333333333 254.51Q1652.2 158.05, 1748.6666666666665 264.92Q1820.39 214.64, 1870.6666666666665 286.37Q1953.96 247.66, 1992.6666666666665 330.96Q2047.79 264.08, 2114.6666666666665 319.2Q2206.53 207.73, 2318 299.6Q2342.13 201.73, 2440 225.85Q2560.24 142.75, 2643.3333333333335 262.99z" fill="rgba(101, 227, 57, 0.3)"></path></g><defs><mask id="SvgjsMask1093"><rect width="2440" height="300" fill="#ffffff"></rect></mask></defs></svg>